<?xml version="1.0" standalone="no"?>
<!DOCTYPE svg PUBLIC "-//W3C//DTD SVG 20010904//EN"
 "http://www.w3.org/TR/2001/REC-SVG-20010904/DTD/svg10.dtd">
<svg version="1.0" xmlns="http://www.w3.org/2000/svg"
 width="500.000000pt" height="500.000000pt" viewBox="0 0 500.000000 500.000000"
 preserveAspectRatio="xMidYMid meet">

<g transform="translate(0.000000,500.000000) scale(0.100000,-0.100000)"
fill="#000000" stroke="none">
<path d="M2303 3200 c-30 -12 -31 -60 -2 -86 19 -17 23 -17 47 -3 36 20 41 61
10 83 -25 18 -25 18 -55 6z"/>
<path d="M2584 3195 c-8 -20 4 -35 27 -35 14 0 19 7 19 25 0 18 -5 25 -20 25
-11 0 -23 -7 -26 -15z"/>
<path d="M2774 3166 c-9 -24 4 -48 23 -44 12 2 18 12 18 28 0 29 -32 41 -41
16z"/>
<path d="M2042 3038 c-23 -23 7 -38 78 -38 59 0 68 3 73 19 3 12 -1 22 -10 25
-27 11 -129 6 -141 -6z"/>
<path d="M2453 3035 c-11 -32 12 -36 173 -33 151 3 159 4 159 23 0 19 -8 20
-163 23 -141 2 -163 0 -169 -13z"/>
<path d="M2914 3035 c-11 -28 10 -36 87 -33 66 3 74 5 74 23 0 18 -8 20 -78
23 -64 2 -78 0 -83 -13z"/>
<path d="M2312 2989 c2 -6 8 -10 13 -10 5 0 11 4 13 10 2 6 -4 11 -13 11 -9 0
-15 -5 -13 -11z"/>
<path d="M1904 2873 c-3 -16 -10 -40 -14 -55 -5 -17 -5 -30 1 -34 37 -22 1141
-27 1287 -5 48 7 47 4 38 71 l-7 50 -53 0 c-54 0 -85 -17 -71 -40 3 -5 0 -10
-7 -10 -10 0 -9 -3 2 -11 12 -9 11 -10 -7 -6 -13 3 -26 1 -29 -5 -4 -6 -10 -5
-15 3 -7 11 -9 10 -9 -4 0 -12 -4 -16 -12 -10 -20 12 -41 13 -55 1 -9 -7 -13
-7 -13 0 0 6 9 13 19 17 25 7 35 34 20 51 -10 12 -82 14 -423 12 l-411 -3 0
-27 c-1 -32 -2 -33 -37 -42 -22 -5 -28 -3 -29 11 0 11 -3 13 -6 6 -11 -29 -39
-11 -34 21 4 22 -24 36 -75 36 -50 0 -54 -2 -60 -27z"/>
<path d="M1878 2525 c-8 -8 0 -61 14 -87 7 -14 21 -18 61 -18 99 0 247 13 247
22 0 4 -15 25 -34 46 l-34 37 -124 3 c-68 2 -126 0 -130 -3z"/>
<path d="M3195 2520 c-3 -5 -13 -6 -23 -3 -15 6 -15 5 -3 -10 12 -15 11 -17
-2 -17 -10 0 -14 -6 -11 -14 3 -8 1 -17 -5 -21 -17 -10 -13 -25 7 -24 10 0 12
3 5 6 -10 3 -10 8 1 19 20 19 25 18 19 -5 -3 -12 2 -20 15 -23 16 -4 21 0 26
22 3 15 8 39 12 54 5 22 3 26 -14 26 -12 0 -23 -4 -27 -10z"/>
<path d="M2887 2356 c4 -13 3 -17 -5 -12 -7 4 -12 3 -12 -3 0 -18 -49 -24 -68
-10 -16 13 -16 13 0 -7 16 -19 16 -20 -2 -32 -27 -16 -38 -15 -16 1 17 13 17
14 2 20 -22 9 -33 -20 -15 -39 11 -10 49 -15 138 -18 67 -2 125 -7 128 -10 3
-3 3 -12 0 -20 -14 -36 -134 -44 -378 -26 -161 12 -199 18 -199 30 0 5 21 15
46 21 l46 12 -78 27 c-44 14 -95 35 -114 45 -30 16 -64 19 -232 23 -109 2
-198 1 -198 -3 0 -18 60 -106 104 -154 56 -59 148 -131 168 -131 6 0 28 -11
48 -25 49 -34 137 -63 236 -77 71 -10 97 -9 180 5 53 10 119 27 148 39 106 46
276 171 276 204 0 8 9 19 20 26 21 13 70 88 70 107 0 7 -27 8 -80 4 -56 -4
-84 -2 -94 6 -8 7 -20 9 -27 5 -18 -11 -53 -11 -61 1 -4 6 -8 2 -8 -9 0 -20 0
-20 -15 0 -15 18 -15 18 -8 0z m-652 -125 c5 -10 -10 -13 -102 -25 -41 -6 -60
4 -48 24 8 13 142 13 150 1z"/>
<path d="M2700 2296 c0 -2 7 -7 16 -10 8 -3 12 -2 9 4 -6 10 -25 14 -25 6z"/>
</g>
</svg>
